<svg width="138" height="25" viewBox="0 0 138 25" fill="none" xmlns="http://www.w3.org/2000/svg">
<path d="M5.36133 17.4961L3.38379 22.5498H5.55176V24H0.366211V22.5498H1.62598L9.72656 1.9541H11.4697L19.5703 22.5498H20.8301V24H14.2969V22.5498H16.2744L14.2822 17.4961H5.36133ZM5.93262 16.0459H13.7109L9.81445 6.1582L5.93262 16.0459ZM29.6045 24.1758L23.5254 9.54199H22.251V8.0918H28.8281V9.54199H26.6455L31.1572 20.3818L35.9912 9.54199H33.8232V8.0918H38.8477V9.54199H37.5732L31.04 24.1758H29.6045ZM50.8008 21.8174C49.9414 22.667 49.0869 23.3066 48.2373 23.7363C47.3877 24.1562 46.543 24.3662 45.7031 24.3662C44.3555 24.3662 43.2324 23.9414 42.334 23.0918C41.4355 22.2324 40.9863 21.1582 40.9863 19.8691C40.9863 18.1113 41.6992 16.7979 43.125 15.9287C44.5508 15.0498 46.6895 14.6104 49.541 14.6104H50.1416V12.6475C50.1416 10.333 49.1553 9.17578 47.1826 9.17578C46.0205 9.17578 44.9561 9.61035 43.9893 10.4795L43.8135 12.0762H42.1875V9.07324C44.2285 8.18457 46.1133 7.74023 47.8418 7.74023C51.2988 7.74023 53.0273 9.32715 53.0273 12.501V19.5908C53.0273 21.5635 53.5156 22.5498 54.4922 22.5498C54.6777 22.5498 54.9121 22.5156 55.1953 22.4473L55.3857 24C54.6826 24.2441 54.0576 24.3662 53.5107 24.3662C52.085 24.3662 51.1816 23.5166 50.8008 21.8174ZM50.1416 21.0264V16.0459H49.4531C47.6562 16.0459 46.3086 16.334 45.4102 16.9102C44.5117 17.4766 44.0625 18.3359 44.0625 19.4883C44.0625 20.3184 44.3311 21.0068 44.8682 21.5537C45.4053 22.1006 46.084 22.374 46.9043 22.374C47.3633 22.374 47.8613 22.2617 48.3984 22.0371C48.9355 21.8125 49.5166 21.4756 50.1416 21.0264ZM62.8125 8.0918V22.5498H64.9805V24H57.7588V22.5498H59.9268V9.54199H57.7588V8.0918H62.8125ZM59.9268 5.20605V2.32031H62.8125V5.20605H59.9268ZM72.9492 0.870117V22.5498H75.1172V24H67.8955V22.5498H70.0635V2.32031H67.8955V0.870117H72.9492ZM87.9199 21.8174C87.0605 22.667 86.2061 23.3066 85.3564 23.7363C84.5068 24.1562 83.6621 24.3662 82.8223 24.3662C81.4746 24.3662 80.3516 23.9414 79.4531 23.0918C78.5547 22.2324 78.1055 21.1582 78.1055 19.8691C78.1055 18.1113 78.8184 16.7979 80.2441 15.9287C81.6699 15.0498 83.8086 14.6104 86.6602 14.6104H87.2607V12.6475C87.2607 10.333 86.2744 9.17578 84.3018 9.17578C83.1396 9.17578 82.0752 9.61035 81.1084 10.4795L80.9326 12.0762H79.3066V9.07324C81.3477 8.18457 83.2324 7.74023 84.9609 7.74023C88.418 7.74023 90.1465 9.32715 90.1465 12.501V19.5908C90.1465 21.5635 90.6348 22.5498 91.6113 22.5498C91.7969 22.5498 92.0312 22.5156 92.3145 22.4473L92.5049 24C91.8018 24.2441 91.1768 24.3662 90.6299 24.3662C89.2041 24.3662 88.3008 23.5166 87.9199 21.8174ZM87.2607 21.0264V16.0459H86.5723C84.7754 16.0459 83.4277 16.334 82.5293 16.9102C81.6309 17.4766 81.1816 18.3359 81.1816 19.4883C81.1816 20.3184 81.4502 21.0068 81.9873 21.5537C82.5244 22.1006 83.2031 22.374 84.0234 22.374C84.4824 22.374 84.9805 22.2617 85.5176 22.0371C86.0547 21.8125 86.6357 21.4756 87.2607 21.0264ZM96.3135 24V2.32031H94.1455V0.870117H99.1992V8.0918L99.1553 11.0801H99.2432C99.7607 10.1035 100.537 9.30273 101.572 8.67773C102.607 8.05273 103.682 7.74023 104.795 7.74023C106.592 7.74023 108.022 8.44824 109.087 9.86426C110.151 11.2803 110.684 13.1895 110.684 15.5918C110.684 18.2383 110.073 20.3623 108.853 21.9639C107.632 23.5654 106.011 24.3662 103.989 24.3662C103.062 24.3662 102.197 24.1855 101.396 23.8242C100.596 23.4629 99.8633 22.9209 99.1992 22.1982H99.0234V24H96.3135ZM99.1992 20.5723C99.9023 21.168 100.625 21.6172 101.367 21.9199C102.109 22.2227 102.871 22.374 103.652 22.374C104.893 22.374 105.859 21.8271 106.553 20.7334C107.256 19.6299 107.607 18.1064 107.607 16.1631C107.607 14.0732 107.295 12.5107 106.67 11.4756C106.045 10.4307 105.103 9.9082 103.843 9.9082C102.983 9.9082 102.168 10.1279 101.396 10.5674C100.625 10.9971 99.8926 11.6514 99.1992 12.5303V20.5723ZM119.18 0.870117V22.5498H121.348V24H114.126V22.5498H116.294V2.32031H114.126V0.870117H119.18ZM137.52 23.2822C135.684 24.0049 133.999 24.3662 132.466 24.3662C130.142 24.3662 128.252 23.5801 126.797 22.0078C125.342 20.4258 124.614 18.3848 124.614 15.8848C124.614 13.4922 125.269 11.5391 126.577 10.0254C127.886 8.50195 129.565 7.74023 131.616 7.74023C133.511 7.74023 134.966 8.37988 135.981 9.65918C137.007 10.9385 137.52 12.7695 137.52 15.1523V15.6943H127.69C127.69 17.7842 128.149 19.4199 129.067 20.6016C129.985 21.7832 131.26 22.374 132.891 22.374C134.463 22.374 136.006 21.9541 137.52 21.1143V23.2822ZM127.866 14.2441H134.458V13.8779C134.458 10.7432 133.457 9.17578 131.455 9.17578C130.361 9.17578 129.517 9.60059 128.921 10.4502C128.325 11.29 127.974 12.5547 127.866 14.2441Z" fill="#00FF00"/>
</svg>
