<svg width="193" height="76" viewBox="0 0 193 76" fill="none" xmlns="http://www.w3.org/2000/svg">
<path d="M13.014 40.338C10.53 40.338 8.298 39.906 6.318 39.042C4.374 38.142 2.844 36.918 1.728 35.37C0.612 33.786 0.0359999 31.968 0 29.916H5.238C5.418 31.68 6.138 33.174 7.398 34.398C8.694 35.586 10.566 36.18 13.014 36.18C15.354 36.18 17.19 35.604 18.522 34.452C19.89 33.264 20.574 31.752 20.574 29.916C20.574 28.476 20.178 27.306 19.386 26.406C18.594 25.506 17.604 24.822 16.416 24.354C15.228 23.886 13.626 23.382 11.61 22.842C9.126 22.194 7.128 21.546 5.616 20.898C4.14 20.25 2.862 19.242 1.782 17.874C0.738 16.47 0.216 14.598 0.216 12.258C0.216 10.206 0.738 8.388 1.782 6.804C2.826 5.22 4.284 3.996 6.156 3.132C8.064 2.268 10.242 1.836 12.69 1.836C16.218 1.836 19.098 2.718 21.33 4.482C23.598 6.246 24.876 8.586 25.164 11.502H19.764C19.584 10.062 18.828 8.802 17.496 7.722C16.164 6.606 14.4 6.048 12.204 6.048C10.152 6.048 8.478 6.588 7.182 7.668C5.886 8.712 5.238 10.188 5.238 12.096C5.238 13.464 5.616 14.58 6.372 15.444C7.164 16.308 8.118 16.974 9.234 17.442C10.386 17.874 11.988 18.378 14.04 18.954C16.524 19.638 18.522 20.322 20.034 21.006C21.546 21.654 22.842 22.68 23.922 24.084C25.002 25.452 25.542 27.324 25.542 29.7C25.542 31.536 25.056 33.264 24.084 34.884C23.112 36.504 21.672 37.818 19.764 38.826C17.856 39.834 15.606 40.338 13.014 40.338Z" fill="#FF0000"/>
<path d="M42.4394 40.446C39.6674 40.446 37.1474 39.816 34.8794 38.556C32.6474 37.296 30.8834 35.514 29.5874 33.21C28.3274 30.87 27.6974 28.17 27.6974 25.11C27.6974 22.086 28.3454 19.422 29.6414 17.118C30.9734 14.778 32.7734 12.996 35.0414 11.772C37.3094 10.512 39.8474 9.882 42.6554 9.882C45.4634 9.882 48.0014 10.512 50.2694 11.772C52.5374 12.996 54.3194 14.76 55.6154 17.064C56.9474 19.368 57.6134 22.05 57.6134 25.11C57.6134 28.17 56.9294 30.87 55.5614 33.21C54.2294 35.514 52.4114 37.296 50.1074 38.556C47.8034 39.816 45.2474 40.446 42.4394 40.446ZM42.4394 36.126C44.2034 36.126 45.8594 35.712 47.4074 34.884C48.9554 34.056 50.1974 32.814 51.1334 31.158C52.1054 29.502 52.5914 27.486 52.5914 25.11C52.5914 22.734 52.1234 20.718 51.1874 19.062C50.2514 17.406 49.0274 16.182 47.5154 15.39C46.0034 14.562 44.3654 14.148 42.6014 14.148C40.8014 14.148 39.1454 14.562 37.6334 15.39C36.1574 16.182 34.9694 17.406 34.0694 19.062C33.1694 20.718 32.7194 22.734 32.7194 25.11C32.7194 27.522 33.1514 29.556 34.0154 31.212C34.9154 32.868 36.1034 34.11 37.5794 34.938C39.0554 35.73 40.6754 36.126 42.4394 36.126Z" fill="#FF0000"/>
<path d="M65.7484 0V39.96H60.8344V0H65.7484Z" fill="#FF0000"/>
<path d="M69.0474 25.056C69.0474 22.032 69.6594 19.386 70.8834 17.118C72.1074 14.814 73.7814 13.032 75.9054 11.772C78.0654 10.512 80.4774 9.882 83.1414 9.882C85.4454 9.882 87.5874 10.422 89.5674 11.502C91.5474 12.546 93.0594 13.932 94.1034 15.66V0H99.0714V39.96H94.1034V34.398C93.1314 36.162 91.6914 37.62 89.7834 38.772C87.8754 39.888 85.6434 40.446 83.0874 40.446C80.4594 40.446 78.0654 39.798 75.9054 38.502C73.7814 37.206 72.1074 35.388 70.8834 33.048C69.6594 30.708 69.0474 28.044 69.0474 25.056ZM94.1034 25.11C94.1034 22.878 93.6534 20.934 92.7534 19.278C91.8534 17.622 90.6294 16.362 89.0814 15.498C87.5694 14.598 85.8954 14.148 84.0594 14.148C82.2234 14.148 80.5494 14.58 79.0374 15.444C77.5254 16.308 76.3194 17.568 75.4194 19.224C74.5194 20.88 74.0694 22.824 74.0694 25.056C74.0694 27.324 74.5194 29.304 75.4194 30.996C76.3194 32.652 77.5254 33.93 79.0374 34.83C80.5494 35.694 82.2234 36.126 84.0594 36.126C85.8954 36.126 87.5694 35.694 89.0814 34.83C90.6294 33.93 91.8534 32.652 92.7534 30.996C93.6534 29.304 94.1034 27.342 94.1034 25.11Z" fill="#FF0000"/>
<path d="M128.198 40.446C125.426 40.446 122.906 39.816 120.638 38.556C118.406 37.296 116.642 35.514 115.346 33.21C114.086 30.87 113.456 28.17 113.456 25.11C113.456 22.086 114.104 19.422 115.4 17.118C116.732 14.778 118.532 12.996 120.8 11.772C123.068 10.512 125.606 9.882 128.414 9.882C131.222 9.882 133.76 10.512 136.028 11.772C138.296 12.996 140.078 14.76 141.374 17.064C142.706 19.368 143.372 22.05 143.372 25.11C143.372 28.17 142.688 30.87 141.32 33.21C139.988 35.514 138.17 37.296 135.866 38.556C133.562 39.816 131.006 40.446 128.198 40.446ZM128.198 36.126C129.962 36.126 131.618 35.712 133.166 34.884C134.714 34.056 135.956 32.814 136.892 31.158C137.864 29.502 138.35 27.486 138.35 25.11C138.35 22.734 137.882 20.718 136.946 19.062C136.01 17.406 134.786 16.182 133.274 15.39C131.762 14.562 130.124 14.148 128.36 14.148C126.56 14.148 124.904 14.562 123.392 15.39C121.916 16.182 120.728 17.406 119.828 19.062C118.928 20.718 118.478 22.734 118.478 25.11C118.478 27.522 118.91 29.556 119.774 31.212C120.674 32.868 121.862 34.11 123.338 34.938C124.814 35.73 126.434 36.126 128.198 36.126Z" fill="#FF0000"/>
<path d="M172.837 10.368V39.96H167.923V35.586C166.987 37.098 165.673 38.286 163.981 39.15C162.325 39.978 160.489 40.392 158.473 40.392C156.169 40.392 154.099 39.924 152.263 38.988C150.427 38.016 148.969 36.576 147.889 34.668C146.845 32.76 146.323 30.438 146.323 27.702V10.368H151.183V27.054C151.183 29.97 151.921 32.22 153.397 33.804C154.873 35.352 156.889 36.126 159.445 36.126C162.073 36.126 164.143 35.316 165.655 33.696C167.167 32.076 167.923 29.718 167.923 26.622V10.368H172.837Z" fill="#FF0000"/>
<path d="M183.888 14.418V31.86C183.888 33.3 184.194 34.326 184.806 34.938C185.418 35.514 186.48 35.802 187.992 35.802H191.61V39.96H187.182C184.446 39.96 182.394 39.33 181.026 38.07C179.658 36.81 178.974 34.74 178.974 31.86V14.418H175.14V10.368H178.974V2.916H183.888V10.368H191.61V14.418H183.888Z" fill="#FF0000"/>
<path d="M29.8529 54.6353L23.5107 74.9601H20.0243L15.1286 58.8264L10.2329 74.9601H6.74649L0.367188 54.6353H3.81646L8.48967 71.6962L13.5338 54.6353H16.983L21.9159 71.7333L26.5149 54.6353H29.8529Z" fill="#FF0000"/>
<path d="M32.7204 51.3344C32.0775 51.3344 31.5335 51.1119 31.0884 50.6668C30.6434 50.2217 30.4208 49.6777 30.4208 49.0349C30.4208 48.392 30.6434 47.848 31.0884 47.403C31.5335 46.9579 32.0775 46.7354 32.7204 46.7354C33.3385 46.7354 33.8577 46.9579 34.2781 47.403C34.7232 47.848 34.9457 48.392 34.9457 49.0349C34.9457 49.6777 34.7232 50.2217 34.2781 50.6668C33.8577 51.1119 33.3385 51.3344 32.7204 51.3344ZM34.3523 54.6353V74.9601H30.9772V54.6353H34.3523Z" fill="#FF0000"/>
<path d="M41.2543 47.5142V74.9601H37.8792V47.5142H41.2543Z" fill="#FF0000"/>
<path d="M48.1563 47.5142V74.9601H44.7812V47.5142H48.1563Z" fill="#FF0000"/>
<path d="M62.721 58.4184C63.4133 57.2068 64.4271 56.2178 65.7623 55.4513C67.0975 54.6848 68.6181 54.3015 70.3242 54.3015C72.1539 54.3015 73.7982 54.7342 75.2571 55.5996C76.7159 56.465 77.8656 57.689 78.7063 59.2714C79.547 60.8292 79.9674 62.6465 79.9674 64.7235C79.9674 66.7758 79.547 68.6055 78.7063 70.2127C77.8656 71.8199 76.7035 73.0685 75.22 73.9587C73.7611 74.8488 72.1292 75.2939 70.3242 75.2939C68.5687 75.2939 67.0233 74.9106 65.6881 74.1441C64.3776 73.3776 63.3886 72.4009 62.721 71.2141V74.9601H59.3459V47.5142H62.721V58.4184ZM76.5181 64.7235C76.5181 63.1905 76.209 61.8553 75.5909 60.7179C74.9727 59.5805 74.132 58.7151 73.0688 58.1217C72.0303 57.5282 70.8806 57.2315 69.6195 57.2315C68.3832 57.2315 67.2335 57.5406 66.1703 58.1588C65.1318 58.7522 64.2911 59.6299 63.6482 60.7921C63.0301 61.9295 62.721 63.2523 62.721 64.7606C62.721 66.2936 63.0301 67.6412 63.6482 68.8033C64.2911 69.9407 65.1318 70.8185 66.1703 71.4366C67.2335 72.03 68.3832 72.3267 69.6195 72.3267C70.8806 72.3267 72.0303 72.03 73.0688 71.4366C74.132 70.8185 74.9727 69.9407 75.5909 68.8033C76.209 67.6412 76.5181 66.2812 76.5181 64.7235Z" fill="#FF0000"/>
<path d="M100.729 64.0188C100.729 64.6617 100.692 65.3417 100.618 66.0587H84.3728C84.4965 68.0615 85.1764 69.6316 86.4127 70.769C87.6737 71.8817 89.1944 72.438 90.9747 72.438C92.4335 72.438 93.6451 72.1042 94.6094 71.4366C95.5984 70.7443 96.2907 69.8294 96.6864 68.692H100.321C99.7771 70.6454 98.6892 72.2402 97.0573 73.4765C95.4253 74.6881 93.3978 75.2939 90.9747 75.2939C89.046 75.2939 87.3152 74.8612 85.7822 73.9957C84.2739 73.1303 83.0871 71.9064 82.2217 70.3239C81.3563 68.7167 80.9236 66.8623 80.9236 64.7606C80.9236 62.6589 81.3439 60.8168 82.1846 59.2343C83.0253 57.6519 84.1997 56.4403 85.708 55.5996C87.241 54.7342 88.9966 54.3015 90.9747 54.3015C92.9033 54.3015 94.6094 54.7218 96.0929 55.5625C97.5765 56.4032 98.7139 57.5653 99.5051 59.0489C100.321 60.5077 100.729 62.1644 100.729 64.0188ZM97.2427 63.3141C97.2427 62.0284 96.9584 60.9281 96.3897 60.0132C95.821 59.0736 95.0421 58.3689 94.053 57.8991C93.0887 57.4046 92.0132 57.1574 90.8263 57.1574C89.1202 57.1574 87.6614 57.7013 86.4498 58.7893C85.263 59.8772 84.583 61.3855 84.4099 63.3141H97.2427Z" fill="#FF0000"/>
<path d="M113.996 58.4184C114.689 57.2068 115.703 56.2178 117.038 55.4513C118.373 54.6848 119.894 54.3015 121.6 54.3015C123.429 54.3015 125.074 54.7342 126.533 55.5996C127.991 56.465 129.141 57.689 129.982 59.2714C130.823 60.8292 131.243 62.6465 131.243 64.7235C131.243 66.7758 130.823 68.6055 129.982 70.2127C129.141 71.8199 127.979 73.0685 126.495 73.9587C125.037 74.8488 123.405 75.2939 121.6 75.2939C119.844 75.2939 118.299 74.9106 116.964 74.1441C115.653 73.3776 114.664 72.4009 113.996 71.2141V74.9601H110.621V47.5142H113.996V58.4184ZM127.794 64.7235C127.794 63.1905 127.485 61.8553 126.866 60.7179C126.248 59.5805 125.408 58.7151 124.344 58.1217C123.306 57.5282 122.156 57.2315 120.895 57.2315C119.659 57.2315 118.509 57.5406 117.446 58.1588C116.407 58.7522 115.567 59.6299 114.924 60.7921C114.306 61.9295 113.996 63.2523 113.996 64.7606C113.996 66.2936 114.306 67.6412 114.924 68.8033C115.567 69.9407 116.407 70.8185 117.446 71.4366C118.509 72.03 119.659 72.3267 120.895 72.3267C122.156 72.3267 123.306 72.03 124.344 71.4366C125.408 70.8185 126.248 69.9407 126.866 68.8033C127.485 67.6412 127.794 66.2812 127.794 64.7235Z" fill="#FF0000"/>
<path d="M132.199 64.7235C132.199 62.6465 132.619 60.8292 133.46 59.2714C134.301 57.689 135.451 56.465 136.909 55.5996C138.393 54.7342 140.037 54.3015 141.842 54.3015C143.622 54.3015 145.168 54.6848 146.478 55.4513C147.789 56.2178 148.765 57.1821 149.408 58.3442V54.6353H152.821V74.9601H149.408V71.177C148.741 72.3638 147.739 73.3529 146.404 74.1441C145.094 74.9106 143.561 75.2939 141.805 75.2939C140 75.2939 138.368 74.8488 136.909 73.9587C135.451 73.0685 134.301 71.8199 133.46 70.2127C132.619 68.6055 132.199 66.7758 132.199 64.7235ZM149.408 64.7606C149.408 63.2276 149.099 61.8924 148.481 60.755C147.863 59.6176 147.022 58.7522 145.959 58.1588C144.921 57.5406 143.771 57.2315 142.51 57.2315C141.249 57.2315 140.099 57.5282 139.061 58.1217C138.022 58.7151 137.194 59.5805 136.576 60.7179C135.957 61.8553 135.648 63.1905 135.648 64.7235C135.648 66.2812 135.957 67.6412 136.576 68.8033C137.194 69.9407 138.022 70.8185 139.061 71.4366C140.099 72.03 141.249 72.3267 142.51 72.3267C143.771 72.3267 144.921 72.03 145.959 71.4366C147.022 70.8185 147.863 69.9407 148.481 68.8033C149.099 67.6412 149.408 66.2936 149.408 64.7606Z" fill="#FF0000"/>
<path d="M155.038 64.7606C155.038 62.6589 155.458 60.8292 156.299 59.2714C157.139 57.689 158.302 56.465 159.785 55.5996C161.293 54.7342 163.012 54.3015 164.94 54.3015C167.438 54.3015 169.49 54.9073 171.097 56.1189C172.729 57.3304 173.805 59.0118 174.324 61.163H170.689C170.343 59.9267 169.663 58.95 168.649 58.2329C167.66 57.5159 166.424 57.1574 164.94 57.1574C163.012 57.1574 161.454 57.825 160.267 59.1602C159.08 60.4706 158.487 62.3374 158.487 64.7606C158.487 67.2085 159.08 69.1 160.267 70.4352C161.454 71.7704 163.012 72.438 164.94 72.438C166.424 72.438 167.66 72.0918 168.649 71.3995C169.638 70.7072 170.318 69.7181 170.689 68.4324H174.324C173.78 70.5094 172.692 72.1784 171.06 73.4394C169.428 74.6757 167.388 75.2939 164.94 75.2939C163.012 75.2939 161.293 74.8612 159.785 73.9957C158.302 73.1303 157.139 71.9064 156.299 70.3239C155.458 68.7415 155.038 66.887 155.038 64.7606Z" fill="#FF0000"/>
<path d="M187.951 74.9601L179.977 65.9845V74.9601H176.602V47.5142H179.977V63.6479L187.803 54.6353H192.513L182.944 64.7606L192.55 74.9601H187.951Z" fill="#FF0000"/>
</svg>
