<svg width="70" height="30" viewBox="0 0 145 93" fill="none" xmlns="http://www.w3.org/2000/svg">
<path d="M0.53125 20.2549C0.53125 17.3018 1.16406 14.5684 2.42969 12.0547C3.69531 9.52344 5.54102 7.31738 7.9668 5.43652C9.77734 4.04785 11.7285 2.98438 13.8203 2.24609C15.9121 1.49023 18.0215 1.1123 20.1484 1.1123C22.8555 1.1123 25.4746 1.70996 28.0059 2.90527C30.5371 4.08301 32.752 5.75293 34.6504 7.91504C37.7441 11.4307 39.291 15.4297 39.291 19.9121C39.291 22.1621 38.8867 24.333 38.0781 26.4248C37.2695 28.5166 36.0918 30.4238 34.5449 32.1465C32.6465 34.291 30.3965 35.9521 27.7949 37.1299C25.2109 38.3076 22.5039 38.8965 19.6738 38.8965C16.8789 38.8965 14.207 38.3252 11.6582 37.1826C9.10938 36.04 6.91211 34.4229 5.06641 32.3311C3.60742 30.6963 2.48242 28.8418 1.69141 26.7676C0.917969 24.6758 0.53125 22.5049 0.53125 20.2549ZM6.91211 20.6504C6.91211 25.748 8.30078 30.0459 11.0781 33.5439C12.3262 35.1084 13.6445 36.251 15.0332 36.9717C16.4395 37.6748 18.0566 38.0264 19.8848 38.0264C21.7305 38.0264 23.3477 37.6748 24.7363 36.9717C26.1426 36.2686 27.4785 35.126 28.7441 33.5439C31.5215 30.0283 32.9102 25.6953 32.9102 20.5449C32.9102 17.7148 32.5234 15.043 31.75 12.5293C30.9941 9.99805 29.9219 7.85352 28.5332 6.0957C27.4082 4.6543 26.1514 3.6084 24.7627 2.95801C23.3916 2.29004 21.7656 1.95605 19.8848 1.95605C18.0215 1.95605 16.4043 2.28125 15.0332 2.93164C13.6797 3.58203 12.4229 4.63672 11.2627 6.0957C9.87402 7.83594 8.80176 9.97168 8.0459 12.5029C7.29004 15.0342 6.91211 17.75 6.91211 20.6504ZM61.5186 38.4482C61.29 37.3936 61.1758 36.3125 61.1758 35.2051C58.9785 37.3848 56.377 38.4746 53.3711 38.4746C51.1738 38.4746 49.4072 37.9385 48.0713 36.8662C46.7705 35.8115 46.1201 34.3174 46.1201 32.3838V23.208L46.0938 21.2041C46.0938 20.0088 46.0234 19.1387 45.8828 18.5938C45.7422 18.0488 45.4785 17.583 45.0918 17.1963C44.582 16.7217 43.668 16.3701 42.3496 16.1416V15.5879H50.0752V28.9561C50.0752 30.8369 50.1367 32.2344 50.2598 33.1484C50.4004 34.0449 50.6465 34.7832 50.998 35.3633C51.3848 35.9609 51.9385 36.4355 52.6592 36.7871C53.3799 37.1211 54.1885 37.2881 55.085 37.2881C56.0693 37.2881 56.9922 37.0947 57.8535 36.708C58.7148 36.3213 59.3916 35.7939 59.8838 35.126C60.3936 34.4404 60.7275 33.6494 60.8857 32.7529C61.0615 31.8564 61.1494 30.3799 61.1494 28.3232V23.1553L61.123 21.2041C61.123 20.0088 61.0527 19.1387 60.9121 18.5938C60.7891 18.0488 60.5254 17.583 60.1211 17.1963C59.6289 16.7217 58.7148 16.3701 57.3789 16.1416V15.5879H65.1045V29.9053C65.1045 31.7158 65.1484 32.9902 65.2363 33.7285C65.3418 34.4492 65.5352 35.0381 65.8164 35.4951C66.1328 35.9873 66.502 36.3477 66.9238 36.5762C67.3457 36.7871 67.9521 36.9189 68.7432 36.9717V37.499L61.5186 38.4482ZM76.9697 15.5879H83.6934V16.5898H76.9697V31.9355C76.9697 33.7812 77.2861 35.0996 77.9189 35.8906C78.2529 36.3301 78.6924 36.6729 79.2373 36.9189C79.7822 37.165 80.3711 37.2881 81.0039 37.2881C81.7949 37.2881 82.4541 37.1299 82.9814 36.8135C83.5088 36.4795 84.0889 35.8818 84.7217 35.0205L85.1172 35.3633C84.5371 36.418 83.7197 37.2002 82.665 37.71C81.6279 38.2197 80.3271 38.4746 78.7627 38.4746C76.6885 38.4746 75.1768 38.0703 74.2275 37.2617C73.7178 36.8398 73.3838 36.3389 73.2256 35.7588C73.0674 35.1611 72.9883 34.0977 72.9883 32.5684V16.5898H70.167V16.168C71.3096 15.7988 72.3643 15.0869 73.3311 14.0322C73.9111 13.3818 74.377 12.7402 74.7285 12.1074C75.0801 11.457 75.4141 10.6221 75.7305 9.60254L75.9941 8.73242H76.9697V15.5879ZM98.5908 26.873C98.5908 24.0254 99.6455 21.4854 101.755 19.2529C104.321 16.5459 107.389 15.1924 110.957 15.1924C114.525 15.1924 117.584 16.5459 120.133 19.2529C122.242 21.5029 123.297 24.0518 123.297 26.8994C123.297 29.7119 122.295 32.2168 120.291 34.4141C117.83 37.1211 114.719 38.4746 110.957 38.4746C107.195 38.4746 104.075 37.1211 101.597 34.4141C100.63 33.3594 99.8828 32.1816 99.3555 30.8809C98.8457 29.5801 98.5908 28.2441 98.5908 26.873ZM103.39 26.583C103.39 29.6416 104.075 32.2344 105.446 34.3613C106.993 36.7344 108.883 37.9209 111.115 37.9209C112.064 37.9209 112.987 37.6572 113.884 37.1299C114.78 36.6025 115.554 35.8643 116.204 34.915C116.89 33.9307 117.443 32.7002 117.865 31.2236C118.287 29.7295 118.498 28.2881 118.498 26.8994C118.498 25.458 118.27 24.0078 117.812 22.5488C117.373 21.0723 116.775 19.8066 116.02 18.752C114.578 16.7656 112.812 15.7725 110.72 15.7725C108.733 15.7725 107.02 16.8184 105.578 18.9102C104.119 21.002 103.39 23.5596 103.39 26.583ZM133.501 16.5898V30.3799L133.527 32.3838C133.527 33.5791 133.598 34.458 133.738 35.0205C133.879 35.5654 134.151 36.0225 134.556 36.3916C135.048 36.8662 135.953 37.2266 137.271 37.4727V38H125.644V37.4727C126.698 37.332 127.454 37.1387 127.911 36.8926C128.368 36.6289 128.737 36.1895 129.019 35.5742C129.212 35.1699 129.344 34.5635 129.414 33.7549C129.502 32.9287 129.546 31.7422 129.546 30.1953V16.5898H125.723V15.5879H129.546V9.1543C129.546 7.60742 129.739 6.38574 130.126 5.48926C130.53 4.59277 131.242 3.7666 132.262 3.01074C133.176 2.34277 134.292 1.82422 135.61 1.45508C136.946 1.06836 138.353 0.875 139.829 0.875C141.2 0.875 142.299 1.1123 143.125 1.58691C143.951 2.06152 144.364 2.69434 144.364 3.48535C144.364 4.0127 144.188 4.45215 143.837 4.80371C143.503 5.15527 143.09 5.33105 142.598 5.33105C142.123 5.33105 141.71 5.20801 141.358 4.96191C141.007 4.69824 140.655 4.27637 140.304 3.69629C139.812 2.8877 139.407 2.36035 139.091 2.11426C138.774 1.85059 138.344 1.71875 137.799 1.71875C137.131 1.71875 136.498 1.85937 135.9 2.14062C135.303 2.4043 134.837 2.75586 134.503 3.19531C134.134 3.6875 133.879 4.33789 133.738 5.14648C133.598 5.9375 133.527 7.08887 133.527 8.60059V15.5879H138.722V16.5898H133.501ZM0.583984 91.9209L0.663086 81.0312H1.26953C2.00781 83.8086 2.88672 85.9971 3.90625 87.5967C5.82227 90.5498 8.23047 92.0264 11.1309 92.0264C13.1523 92.0264 14.8223 91.3496 16.1406 89.9961C17.459 88.6426 18.1182 86.9287 18.1182 84.8545C18.1182 83.958 17.9688 83.0439 17.6699 82.1123C17.3887 81.1807 17.002 80.3809 16.5098 79.7129C16 79.0273 15.2793 78.3682 14.3477 77.7354C13.4336 77.1025 12.0273 76.3027 10.1289 75.3359C8.45898 74.4922 7.17578 73.7803 6.2793 73.2002C5.40039 72.6201 4.68848 72.0312 4.14355 71.4336C2.63184 69.7812 1.87598 67.7686 1.87598 65.3955C1.87598 63.9365 2.16602 62.5303 2.74609 61.1768C3.34375 59.8232 4.16992 58.6631 5.22461 57.6963C7.08789 55.9736 9.29395 55.1123 11.8428 55.1123C12.6689 55.1123 13.4336 55.2002 14.1367 55.376C14.8398 55.5342 15.7803 55.8594 16.958 56.3516C17.8369 56.7031 18.4346 56.9316 18.751 57.0371C19.0674 57.125 19.3486 57.1689 19.5947 57.1689C20.21 57.1689 20.623 56.7207 20.834 55.8242H21.4404L21.625 66.292H21.0186C20.5439 64.6221 20.1309 63.3477 19.7793 62.4688C19.4453 61.5723 19.041 60.7461 18.5664 59.9902C17.7051 58.6191 16.7559 57.6084 15.7188 56.958C14.6816 56.29 13.4863 55.9561 12.1328 55.9561C10.1641 55.9561 8.6084 56.624 7.46582 57.96C6.99121 58.5049 6.61328 59.1465 6.33203 59.8848C6.06836 60.623 5.93652 61.3613 5.93652 62.0996C5.93652 65.0352 7.82617 67.3994 11.6055 69.1924L15.3232 70.9854C18.1885 72.3389 20.2539 73.833 21.5195 75.4678C22.9609 77.2959 23.6816 79.4229 23.6816 81.8486C23.6816 83.4658 23.3564 85.0127 22.7061 86.4893C21.792 88.5459 20.4209 90.1367 18.5928 91.2617C16.7646 92.3691 14.6113 92.9229 12.1328 92.9229C9.86523 92.9229 7.68555 92.4746 5.59375 91.5781C4.50391 91.1035 3.85352 90.8311 3.64258 90.7607C3.43164 90.6904 3.19434 90.6553 2.93066 90.6553C2.08691 90.6553 1.50684 91.0771 1.19043 91.9209H0.583984ZM33.4639 69.5879H40.1875V70.5898H33.4639V85.9355C33.4639 87.7812 33.7803 89.0996 34.4131 89.8906C34.7471 90.3301 35.1865 90.6729 35.7314 90.9189C36.2764 91.165 36.8652 91.2881 37.498 91.2881C38.2891 91.2881 38.9482 91.1299 39.4756 90.8135C40.0029 90.4795 40.583 89.8818 41.2158 89.0205L41.6113 89.3633C41.0312 90.418 40.2139 91.2002 39.1592 91.71C38.1221 92.2197 36.8213 92.4746 35.2568 92.4746C33.1826 92.4746 31.6709 92.0703 30.7217 91.2617C30.2119 90.8398 29.8779 90.3389 29.7197 89.7588C29.5615 89.1611 29.4824 88.0977 29.4824 86.5684V70.5898H26.6611V70.168C27.8037 69.7988 28.8584 69.0869 29.8252 68.0322C30.4053 67.3818 30.8711 66.7402 31.2227 66.1074C31.5742 65.457 31.9082 64.6221 32.2246 63.6025L32.4883 62.7324H33.4639V69.5879ZM41.585 80.873C41.585 78.0254 42.6396 75.4854 44.749 73.2529C47.3154 70.5459 50.3828 69.1924 53.9512 69.1924C57.5195 69.1924 60.5781 70.5459 63.127 73.2529C65.2363 75.5029 66.291 78.0518 66.291 80.8994C66.291 83.7119 65.2891 86.2168 63.2852 88.4141C60.8242 91.1211 57.7129 92.4746 53.9512 92.4746C50.1895 92.4746 47.0693 91.1211 44.5908 88.4141C43.624 87.3594 42.877 86.1816 42.3496 84.8809C41.8398 83.5801 41.585 82.2441 41.585 80.873ZM46.3838 80.583C46.3838 83.6416 47.0693 86.2344 48.4404 88.3613C49.9873 90.7344 51.877 91.9209 54.1094 91.9209C55.0586 91.9209 55.9814 91.6572 56.8779 91.1299C57.7744 90.6025 58.5479 89.8643 59.1982 88.915C59.8838 87.9307 60.4375 86.7002 60.8594 85.2236C61.2812 83.7295 61.4922 82.2881 61.4922 80.8994C61.4922 79.458 61.2637 78.0078 60.8066 76.5488C60.3672 75.0723 59.7695 73.8066 59.0137 72.752C57.5723 70.7656 55.8057 69.7725 53.7139 69.7725C51.7275 69.7725 50.0137 70.8184 48.5723 72.9102C47.1133 75.002 46.3838 77.5596 46.3838 80.583ZM88.3604 87.0166L88.8877 87.2012C88.2725 89.0645 87.332 90.4092 86.0664 91.2354C84.8008 92.0615 83.0605 92.4746 80.8457 92.4746C77.2949 92.4746 74.5088 91.4199 72.4873 89.3105C70.5186 87.2363 69.5342 84.6172 69.5342 81.4531C69.5342 79.9062 69.8066 78.377 70.3516 76.8652C70.8965 75.3535 71.6436 74.0615 72.5928 72.9893C73.665 71.7588 74.9746 70.8184 76.5215 70.168C78.0859 69.5176 79.791 69.1924 81.6367 69.1924C84.1855 69.1924 86.1807 69.7637 87.6221 70.9062C88.501 71.6094 88.9404 72.3828 88.9404 73.2266C88.9404 73.7891 88.7559 74.2637 88.3867 74.6504C88.0176 75.0195 87.5693 75.2041 87.042 75.2041C85.8994 75.2041 85.0557 74.3691 84.5107 72.6992C84.2646 71.9258 84.0625 71.3984 83.9043 71.1172C83.7637 70.8359 83.5527 70.5898 83.2715 70.3789C82.7266 69.9746 82.0586 69.7725 81.2676 69.7725C80.2305 69.7725 79.2725 70.0625 78.3936 70.6426C77.6201 71.1523 76.9609 71.7939 76.416 72.5674C75.8887 73.3232 75.4229 74.2812 75.0186 75.4414C74.4033 77.2168 74.0957 78.957 74.0957 80.6621C74.0957 82.2266 74.377 83.7559 74.9395 85.25C75.502 86.7441 76.2666 87.9922 77.2334 88.9941C78.7451 90.5762 80.5205 91.3672 82.5596 91.3672C84.2471 91.3672 85.6445 90.8311 86.752 89.7588C87.3145 89.1963 87.8506 88.2822 88.3604 87.0166ZM98.96 81.3477L103.759 76.1006C104.743 74.9932 105.402 74.1758 105.736 73.6484C106.07 73.1035 106.237 72.5586 106.237 72.0137C106.237 71.2578 105.851 70.7305 105.077 70.4316C104.743 70.291 104.119 70.1943 103.205 70.1416V69.5879H113.356V70.1416C112.073 70.1416 111.036 70.3613 110.245 70.8008C109.454 71.2402 108.417 72.1543 107.134 73.543L106.079 74.7295L103.205 77.8145L110.008 85.4609C110.57 86.0762 110.939 86.4717 111.115 86.6475L112.302 87.8604C113.251 88.8096 113.937 89.46 114.358 89.8115C114.78 90.1631 115.281 90.4971 115.861 90.8135C116.529 91.165 117.391 91.3848 118.445 91.4727V92H106.079V91.4727C106.817 91.4023 107.336 91.2793 107.635 91.1035C108.057 90.8398 108.268 90.4707 108.268 89.9961C108.268 89.4863 108.013 88.9502 107.503 88.3877L106.949 87.7549L100.568 80.6885L98.96 82.4551V84.3799L98.9863 86.3838C98.9863 87.5791 99.0566 88.458 99.1973 89.0205C99.3379 89.5654 99.6104 90.0225 100.015 90.3916C100.507 90.8662 101.412 91.2266 102.73 91.4727V92H91.1025V91.4727C92.1572 91.332 92.9131 91.1387 93.3701 90.8926C93.8271 90.6289 94.1963 90.1895 94.4775 89.5742C94.6709 89.1699 94.8027 88.5635 94.873 87.7549C94.9609 86.9287 95.0049 85.7422 95.0049 84.1953V63.4971C95.0049 61.7041 94.9609 60.4385 94.873 59.7002C94.7852 58.9619 94.5918 58.3643 94.293 57.9072C93.9941 57.415 93.6338 57.0635 93.2119 56.8525C92.79 56.6416 92.1836 56.5098 91.3926 56.457V55.9033L98.96 54.9541V81.3477Z" fill="red"/>
</svg>
